<svg width="135" height="38" viewBox="0 0 135 38" fill="none" xmlns="http://www.w3.org/2000/svg">
<g clip-path="url(#clip0_1_15)">
<path d="M2.407 10.7H7.105V27.172H17.284V31H2.407V10.7ZM26.0529 15.166C28.4695 15.166 30.3255 15.746 31.6209 16.906C32.9162 18.0467 33.5639 19.777 33.5639 22.097V31H29.3299V29.057C28.4792 30.507 26.8939 31.232 24.5739 31.232C23.3752 31.232 22.3312 31.029 21.4419 30.623C20.5719 30.217 19.9049 29.6563 19.4409 28.941C18.9769 28.2257 18.7449 27.4137 18.7449 26.505C18.7449 25.055 19.2862 23.9143 20.3689 23.083C21.4709 22.2517 23.1625 21.836 25.4439 21.836H29.0399C29.0399 20.85 28.7402 20.096 28.1409 19.574C27.5415 19.0327 26.6425 18.762 25.4439 18.762C24.6125 18.762 23.7909 18.8973 22.9789 19.168C22.1862 19.4193 21.5095 19.7673 20.9489 20.212L19.3249 17.051C20.1755 16.4517 21.1905 15.9877 22.3699 15.659C23.5685 15.3303 24.7962 15.166 26.0529 15.166ZM25.7049 28.187C26.4782 28.187 27.1645 28.013 27.7639 27.665C28.3632 27.2977 28.7885 26.766 29.0399 26.07V24.475H25.9369C24.0809 24.475 23.1529 25.084 23.1529 26.302C23.1529 26.882 23.3752 27.346 23.8199 27.694C24.2839 28.0227 24.9122 28.187 25.7049 28.187ZM47.1413 15.166C49.0746 15.166 50.631 15.746 51.8103 16.906C53.009 18.066 53.6083 19.7867 53.6083 22.068V31H49.0843V22.764C49.0843 21.5267 48.8136 20.6083 48.2723 20.009C47.731 19.3903 46.948 19.081 45.9233 19.081C44.7826 19.081 43.874 19.4387 43.1973 20.154C42.5206 20.85 42.1823 21.894 42.1823 23.286V31H37.6583V15.398H41.9793V17.225C42.5786 16.5677 43.323 16.065 44.2123 15.717C45.1016 15.3497 46.078 15.166 47.1413 15.166ZM73.771 9.482V31H69.45V29.202C68.3287 30.5553 66.7047 31.232 64.578 31.232C63.1087 31.232 61.7747 30.9033 60.576 30.246C59.3967 29.5887 58.4687 28.651 57.792 27.433C57.1153 26.215 56.777 24.8037 56.777 23.199C56.777 21.5943 57.1153 20.183 57.792 18.965C58.4687 17.747 59.3967 16.8093 60.576 16.152C61.7747 15.4947 63.1087 15.166 64.578 15.166C66.5693 15.166 68.1257 15.7943 69.247 17.051V9.482H73.771ZM65.361 27.52C66.5017 27.52 67.449 27.1333 68.203 26.36C68.957 25.5673 69.334 24.5137 69.334 23.199C69.334 21.8843 68.957 20.8403 68.203 20.067C67.449 19.2743 66.5017 18.878 65.361 18.878C64.201 18.878 63.244 19.2743 62.49 20.067C61.736 20.8403 61.359 21.8843 61.359 23.199C61.359 24.5137 61.736 25.5673 62.49 26.36C63.244 27.1333 64.201 27.52 65.361 27.52Z" fill="white"/>
<path d="M80.7711 11.396C80.7711 10.3907 81.0901 9.627 81.7281 9.105C82.3855 8.583 83.2458 8.322 84.3091 8.322C85.1598 8.322 85.7978 8.48633 86.2231 8.815C86.6678 9.14367 86.8901 9.63667 86.8901 10.294C86.8901 11.1833 86.5518 11.9083 85.8751 12.469C85.1985 13.0297 84.3478 13.31 83.3231 13.31C82.4918 13.31 81.8538 13.1457 81.4091 12.817C80.9838 12.4883 80.7711 12.0147 80.7711 11.396ZM79.5531 18.414C79.6498 18.1627 79.6981 17.921 79.6981 17.689C79.6981 17.3603 79.5628 17.196 79.2921 17.196C78.9828 17.196 78.7025 17.3313 78.4511 17.602C78.1998 17.8727 77.9485 18.3463 77.6971 19.023L77.0301 20.792H76.4791L77.2911 18.53C78.0065 16.5387 79.4468 15.543 81.6121 15.543C82.6561 15.543 83.4198 15.7943 83.9031 16.297C84.3865 16.7997 84.6281 17.4377 84.6281 18.211C84.6281 18.6363 84.5508 19.1003 84.3961 19.603L81.3801 28.535C81.2835 28.8637 81.2351 29.0957 81.2351 29.231C81.2351 29.579 81.3995 29.753 81.7281 29.753C82.2888 29.753 82.8011 29.144 83.2651 27.926L83.8741 26.302H84.4251L83.7001 28.419C83.0041 30.4103 81.6218 31.406 79.5531 31.406C78.5671 31.406 77.8035 31.174 77.2621 30.71C76.7208 30.246 76.4501 29.5597 76.4501 28.651C76.4501 28.0323 76.5951 27.288 76.8851 26.418L79.5531 18.414ZM101.823 26.302H102.374L101.649 28.419C100.953 30.4103 99.571 31.406 97.5023 31.406C96.265 31.406 95.395 31.058 94.8923 30.362C94.5636 29.9173 94.3993 29.376 94.3993 28.738C94.3993 28.1193 94.554 27.346 94.8633 26.418L97.3573 18.907C97.512 18.4623 97.5893 18.0853 97.5893 17.776C97.5893 17.486 97.4926 17.341 97.2993 17.341C96.7966 17.341 96.149 18.0177 95.3563 19.371C94.5636 20.7243 93.7516 22.4547 92.9203 24.562C92.1083 26.6693 91.422 28.7863 90.8613 30.913V30.855L90.8323 31H85.6993L89.2373 18.414C89.3533 18.0273 89.4113 17.747 89.4113 17.573C89.4113 17.3217 89.2663 17.196 88.9763 17.196C88.667 17.196 88.3866 17.3313 88.1353 17.602C87.884 17.8727 87.6326 18.3463 87.3813 19.023L86.7143 20.792H86.1633L86.9753 18.53C87.3426 17.5053 87.8453 16.7513 88.4833 16.268C89.1213 15.7847 89.943 15.543 90.9483 15.543C92.031 15.543 92.8043 15.7943 93.2683 16.297C93.7516 16.7997 93.9933 17.457 93.9933 18.269C93.9933 18.7137 93.9353 19.1583 93.8193 19.603L93.0363 22.619C93.7903 20.7243 94.5056 19.2743 95.1823 18.269C95.8783 17.2443 96.584 16.5387 97.2993 16.152C98.0146 15.746 98.8266 15.543 99.7353 15.543C101.63 15.543 102.577 16.3453 102.577 17.95C102.577 18.472 102.452 19.1293 102.2 19.922L99.3293 28.535C99.2326 28.8637 99.1843 29.0957 99.1843 29.231C99.1843 29.579 99.3486 29.753 99.6773 29.753C100.238 29.753 100.75 29.144 101.214 27.926L101.823 26.302ZM117.429 14.209C118.067 14.209 118.56 14.3927 118.908 14.76C119.256 15.108 119.43 15.5623 119.43 16.123C119.43 16.6643 119.285 17.0993 118.995 17.428C118.725 17.7373 118.396 17.892 118.009 17.892C117.623 17.892 117.284 17.7373 116.994 17.428C116.704 17.0993 116.559 16.6547 116.559 16.094C116.559 15.688 116.646 15.2433 116.82 14.76C116.047 15.0693 115.448 15.5237 115.022 16.123C116.202 16.703 116.791 17.6213 116.791 18.878C116.791 19.69 116.55 20.4923 116.066 21.285C115.602 22.0777 114.926 22.764 114.036 23.344C113.147 23.924 112.122 24.3203 110.962 24.533C110.054 24.881 109.377 25.1903 108.932 25.461C108.507 25.7317 108.294 25.983 108.294 26.215C108.294 26.3697 108.372 26.4953 108.526 26.592C108.681 26.6887 108.942 26.8047 109.309 26.94L111.948 27.926C112.934 28.2933 113.727 28.7477 114.326 29.289C114.945 29.8303 115.254 30.5553 115.254 31.464C115.254 32.5467 114.79 33.465 113.862 34.219C112.954 34.973 111.794 35.5337 110.382 35.901C108.99 36.2683 107.589 36.452 106.177 36.452C104.65 36.452 103.316 36.249 102.175 35.843C101.035 35.437 100.464 34.8957 100.464 34.219C100.464 33.5617 101.035 33.0493 102.175 32.682C103.316 32.334 104.544 32.16 105.858 32.16C106.168 32.16 106.4 32.1697 106.554 32.189L106.583 32.624C105.443 33.262 104.872 33.9387 104.872 34.654C104.872 35.06 105.037 35.379 105.365 35.611C105.694 35.843 106.168 35.959 106.786 35.959C107.424 35.959 108.091 35.843 108.787 35.611C109.503 35.379 110.092 35.06 110.556 34.654C111.02 34.248 111.252 33.8033 111.252 33.32C111.252 32.9527 111.117 32.6917 110.846 32.537C110.595 32.3823 110.17 32.2083 109.57 32.015L105.626 30.768C105.085 30.594 104.64 30.3427 104.292 30.014C103.944 29.666 103.77 29.2503 103.77 28.767C103.77 27.9937 104.234 27.317 105.162 26.737C106.09 26.1377 107.521 25.461 109.454 24.707H109.106C107.676 24.707 106.525 24.4363 105.655 23.895C104.785 23.3343 104.35 22.503 104.35 21.401C104.35 20.4537 104.66 19.5353 105.278 18.646C105.916 17.7373 106.815 17.0027 107.975 16.442C109.155 15.862 110.508 15.572 112.035 15.572C112.983 15.572 113.766 15.6783 114.384 15.891C114.771 15.369 115.225 14.963 115.747 14.673C116.289 14.3637 116.849 14.209 117.429 14.209ZM109.193 22.532C109.193 23.17 109.232 23.605 109.309 23.837C109.387 24.069 109.532 24.185 109.744 24.185C110.131 24.185 110.489 23.8853 110.817 23.286C111.146 22.6673 111.407 21.865 111.6 20.879C111.794 19.8737 111.89 18.82 111.89 17.718C111.89 17.2153 111.852 16.819 111.774 16.529C111.697 16.239 111.533 16.094 111.281 16.094C110.953 16.094 110.624 16.3937 110.295 16.993C109.967 17.5923 109.696 18.385 109.483 19.371C109.29 20.357 109.193 21.4107 109.193 22.532Z" fill="#FFC80A"/>
</g>
<defs>
<clipPath id="clip0_1_15">
<rect width="135" height="38" fill="white"/>
</clipPath>
</defs>
</svg>
